<svg width="68" height="68" viewBox="0 0 68 68" fill="none" xmlns="http://www.w3.org/2000/svg">
<g clip-path="url(#clip0_26642_47077)">
<rect width="68" height="68" rx="34" fill="url(#paint0_linear_26642_47077)"/>
<rect width="68" height="68" rx="34" fill="white" fill-opacity="0.2"/>
<g style="mix-blend-mode:soft-light" filter="url(#filter0_f_26642_47077)">
<ellipse cx="34.1632" cy="67.8293" rx="35.5265" ry="25.1184" fill="white"/>
</g>
<g style="mix-blend-mode:soft-light" filter="url(#filter1_f_26642_47077)">
<ellipse cx="34" cy="35.2171" rx="25.5" ry="20.6429" fill="white"/>
</g>
<g filter="url(#filter2_d_26642_47077)">
<path d="M48.8969 59.4149C48.3247 56.8682 49.7145 54.2764 52.1675 53.3849C55.2004 52.2826 58.4528 54.228 58.7396 57.4423C59.2417 63.069 59.6191 71.5022 58.3317 78.2658C56.6973 86.8524 50.4842 84.8062 50.6958 76.068C50.7629 73.3003 50.7792 70.8637 50.7065 69.2328C50.6255 67.4135 49.6774 62.8882 48.8969 59.4149Z" fill="url(#paint1_linear_26642_47077)"/>
<g filter="url(#filter3_d_26642_47077)">
<path d="M32.0813 13.4043C32.0623 12.7474 32.5794 12.1994 33.2364 12.1804C33.8933 12.1614 34.4413 12.6785 34.4603 13.3355L34.5534 16.5518L32.1744 16.6206L32.0813 13.4043Z" fill="url(#paint2_linear_26642_47077)"/>
</g>
<g filter="url(#filter4_d_26642_47077)">
<path d="M14.3667 69.4995C14.1751 62.8823 16.0295 56.7931 19.1358 53.8394C28.704 44.7408 40.2138 44.4394 50.3087 52.8964C53.6216 55.6718 55.8853 61.7279 56.0789 68.417L56.2036 72.7235C56.6463 88.0157 50.3791 100.604 42.2055 100.841L30.1191 101.191C21.9328 101.428 14.9371 89.2041 14.4938 73.8883L14.3667 69.4995Z" fill="url(#paint3_linear_26642_47077)"/>
</g>
<path d="M32.1421 54.456C32.3005 52.9559 33.5437 51.8041 35.0515 51.7605C36.5593 51.7168 37.867 52.7947 38.112 54.2831L42.0634 78.293C42.47 80.7635 41.3746 83.2402 39.2732 84.6014C37.3004 85.8794 34.7801 85.9524 32.7366 84.7907C30.5601 83.5533 29.3232 81.1441 29.5862 78.6543L32.1421 54.456Z" fill="url(#paint4_linear_26642_47077)"/>
<g filter="url(#filter5_d_26642_47077)">
<path d="M36.8085 29.7723C36.8466 31.0873 35.8115 32.1841 34.4966 32.2222C33.1817 32.2603 32.0849 31.2251 32.0469 29.9102C32.0469 29.9102 33.1128 29.8793 34.4277 29.8412C35.7426 29.8032 36.8085 29.7723 36.8085 29.7723Z" fill="#362B74"/>
</g>
<path d="M13.2858 31.6674C13.0546 23.6812 19.3413 17.0196 27.3276 16.7884L39.2336 16.4437C47.2199 16.2124 53.8814 22.4991 54.1126 30.4854C54.3438 38.4716 48.0571 45.1332 40.0708 45.3644L28.1648 45.7091C20.1785 45.9403 13.517 39.6536 13.2858 31.6674Z" fill="url(#paint5_linear_26642_47077)"/>
<g filter="url(#filter6_d_26642_47077)">
<rect width="7.56737" height="2.11666" rx="1.05833" transform="matrix(0.817548 -0.575861 0.575814 0.817581 46.5234 28.0508)" fill="#EFEFEF"/>
<rect x="0.490079" y="0.0850188" width="6.86392" height="1.41321" rx="0.706607" transform="matrix(0.817548 -0.575861 0.575814 0.817581 46.5639 28.3485)" stroke="#FFB501" stroke-width="0.703448"/>
</g>
<g filter="url(#filter7_d_26642_47077)">
<rect width="7.81092" height="2.11667" rx="1.05833" transform="matrix(0.849494 0.527598 -0.527551 0.849523 14.4102 24.8867)" fill="#EFEFEF"/>
<rect x="0.113235" y="0.484367" width="7.10747" height="1.41322" rx="0.706611" transform="matrix(0.849494 0.527598 -0.527551 0.849523 14.6827 24.8999)" stroke="#FFB501" stroke-width="0.703448"/>
</g>
<g filter="url(#filter8_d_26642_47077)">
<path d="M36.4519 39.3327C36.4906 40.6678 35.4396 41.7815 34.1045 41.8202C32.7695 41.8588 31.6558 40.8078 31.6172 39.4727C31.6172 39.4727 32.6995 39.4413 34.0346 39.4027C35.3696 39.364 36.4519 39.3327 36.4519 39.3327Z" fill="white"/>
</g>
<path d="M32.3032 30.5489C32.2742 29.5475 31.2389 28.4022 32.2402 28.3732L35.5035 28.2787C36.5047 28.2497 37.3399 29.0379 37.3689 30.0393C37.3979 31.0406 36.6097 31.8758 35.6085 31.9048L32.3452 31.9993C31.3439 32.0283 32.3322 31.5502 32.3032 30.5489Z" fill="white"/>
<path d="M19.187 28.7511C19.129 26.7485 20.7054 25.078 22.7079 25.02L28.5093 24.8521C30.5119 24.7941 32.1822 26.3705 32.2402 28.3732L32.3032 30.5489C32.3611 32.5515 30.7848 34.222 28.7823 34.2799L22.9808 34.4479C20.9783 34.5059 19.308 32.9294 19.25 30.9268L19.187 28.7511Z" fill="white"/>
<path d="M36.2287 28.2577C36.1707 26.2551 37.7471 24.5846 39.7496 24.5266L45.551 24.3587C47.5535 24.3007 49.2239 25.8771 49.2818 27.8798L49.3448 30.0555C49.4028 32.0581 47.8264 33.7286 45.8239 33.7865L40.0225 33.9545C38.02 34.0125 36.3496 32.436 36.2916 30.4334L36.2287 28.2577Z" fill="white"/>
<ellipse opacity="0.5" cx="2.86624" cy="2.86641" rx="2.86624" ry="2.86641" transform="matrix(0.999581 -0.0289403 0.0289367 0.999581 22.2656 26.6367)" fill="#372B75"/>
<g filter="url(#filter9_d_26642_47077)">
<ellipse cx="1.29776" cy="1.29784" rx="1.29776" ry="1.29784" transform="matrix(0.999581 -0.0289403 0.0289367 0.999581 24.5664 27.918)" fill="url(#paint6_radial_26642_47077)" shape-rendering="crispEdges"/>
</g>
<ellipse opacity="0.5" cx="2.86624" cy="2.86641" rx="2.86624" ry="2.86641" transform="matrix(0.999581 -0.0289403 0.0289367 0.999581 39.2969 26.1914)" fill="#362B74"/>
<g filter="url(#filter10_d_26642_47077)">
<ellipse cx="1.29776" cy="1.29784" rx="1.29776" ry="1.29784" transform="matrix(0.999581 -0.0289403 0.0289367 0.999581 41.6094 27.4648)" fill="url(#paint7_radial_26642_47077)" shape-rendering="crispEdges"/>
</g>
<rect width="3.52591" height="1.41045" transform="matrix(0.999581 -0.0289403 0.0289367 0.999581 32.6797 45.6055)" fill="url(#paint8_linear_26642_47077)"/>
<g filter="url(#filter11_d_26642_47077)">
<path d="M32.2639 48.2977C32.4681 47.4481 33.2163 46.8406 34.0897 46.8153L34.891 46.7922C35.9166 46.7625 36.7926 47.5265 36.9025 48.5467C36.9639 49.1164 36.7736 49.6846 36.3815 50.1025L36.2768 50.2141C35.4668 51.0773 34.1338 51.1845 33.1963 50.4618L32.9641 50.2827C32.3598 49.8169 32.0856 49.0396 32.2639 48.2977Z" fill="#FFEE17"/>
</g>
<g filter="url(#filter12_d_26642_47077)">
<ellipse cx="3.46116" cy="3.46137" rx="3.46116" ry="3.46137" transform="matrix(0.999745 -0.0225629 0.0225602 0.999746 29.7461 7.16797)" fill="url(#paint9_linear_26642_47077)"/>
</g>
<g filter="url(#filter13_d_26642_47077)">
<path d="M22.0772 63.3157C22.6097 60.0357 20.1611 56.8376 16.8395 56.9337C14.0664 57.014 11.9205 59.3912 12.1235 62.1581L13.5685 81.852C13.6574 83.0649 14.2467 84.1863 15.1952 84.9476C18.1796 87.3432 22.6071 85.029 22.3761 81.209C22.108 76.7771 21.8343 71.6573 21.716 67.5706C21.6789 66.2922 21.838 64.7888 22.0772 63.3157Z" fill="url(#paint10_radial_26642_47077)"/>
<path d="M22.0772 63.3157C22.6097 60.0357 20.1611 56.8376 16.8395 56.9337C14.0664 57.014 11.9205 59.3912 12.1235 62.1581L13.5685 81.852C13.6574 83.0649 14.2467 84.1863 15.1952 84.9476C18.1796 87.3432 22.6071 85.029 22.3761 81.209C22.108 76.7771 21.8343 71.6573 21.716 67.5706C21.6789 66.2922 21.838 64.7888 22.0772 63.3157Z" fill="url(#paint11_linear_26642_47077)"/>
</g>
</g>
</g>
<defs>
<filter id="filter0_f_26642_47077" x="-12.4653" y="31.6089" width="93.2588" height="72.4424" filterUnits="userSpaceOnUse" color-interpolation-filters="sRGB">
<feFlood flood-opacity="0" result="BackgroundImageFix"/>
<feBlend mode="normal" in="SourceGraphic" in2="BackgroundImageFix" result="shape"/>
<feGaussianBlur stdDeviation="5.55102" result="effect1_foregroundBlur_26642_47077"/>
</filter>
<filter id="filter1_f_26642_47077" x="-17.0489" y="-10.9747" width="102.098" height="92.3829" filterUnits="userSpaceOnUse" color-interpolation-filters="sRGB">
<feFlood flood-opacity="0" result="BackgroundImageFix"/>
<feBlend mode="normal" in="SourceGraphic" in2="BackgroundImageFix" result="shape"/>
<feGaussianBlur stdDeviation="12.7744" result="effect1_foregroundBlur_26642_47077"/>
</filter>
<filter id="filter2_d_26642_47077" x="6.36993" y="4.22012" width="58.5765" height="105.584" filterUnits="userSpaceOnUse" color-interpolation-filters="sRGB">
<feFlood flood-opacity="0" result="BackgroundImageFix"/>
<feColorMatrix in="SourceAlpha" type="matrix" values="0 0 0 0 0 0 0 0 0 0 0 0 0 0 0 0 0 0 127 0" result="hardAlpha"/>
<feOffset dy="2.86972"/>
<feGaussianBlur stdDeviation="2.86972"/>
<feColorMatrix type="matrix" values="0 0 0 0 0 0 0 0 0 0 0 0 0 0 0 0 0 0 0.08 0"/>
<feBlend mode="normal" in2="BackgroundImageFix" result="effect1_dropShadow_26642_47077"/>
<feBlend mode="normal" in="SourceGraphic" in2="effect1_dropShadow_26642_47077" result="shape"/>
</filter>
<filter id="filter3_d_26642_47077" x="31.269" y="11.8748" width="4.09876" height="6.06751" filterUnits="userSpaceOnUse" color-interpolation-filters="sRGB">
<feFlood flood-opacity="0" result="BackgroundImageFix"/>
<feColorMatrix in="SourceAlpha" type="matrix" values="0 0 0 0 0 0 0 0 0 0 0 0 0 0 0 0 0 0 127 0" result="hardAlpha"/>
<feOffset dy="0.508158"/>
<feGaussianBlur stdDeviation="0.406527"/>
<feComposite in2="hardAlpha" operator="out"/>
<feColorMatrix type="matrix" values="0 0 0 0 0.443137 0 0 0 0 0.14902 0 0 0 0 0.776471 0 0 0 0.24 0"/>
<feBlend mode="normal" in2="BackgroundImageFix" result="effect1_dropShadow_26642_47077"/>
<feBlend mode="normal" in="SourceGraphic" in2="effect1_dropShadow_26642_47077" result="shape"/>
</filter>
<filter id="filter4_d_26642_47077" x="13.5385" y="46.4724" width="43.5011" height="56.0441" filterUnits="userSpaceOnUse" color-interpolation-filters="sRGB">
<feFlood flood-opacity="0" result="BackgroundImageFix"/>
<feColorMatrix in="SourceAlpha" type="matrix" values="0 0 0 0 0 0 0 0 0 0 0 0 0 0 0 0 0 0 127 0" result="hardAlpha"/>
<feOffset dy="0.508158"/>
<feGaussianBlur stdDeviation="0.406527"/>
<feComposite in2="hardAlpha" operator="out"/>
<feColorMatrix type="matrix" values="0 0 0 0 0.443137 0 0 0 0 0.14902 0 0 0 0 0.776471 0 0 0 0.24 0"/>
<feBlend mode="normal" in2="BackgroundImageFix" result="effect1_dropShadow_26642_47077"/>
<feBlend mode="normal" in="SourceGraphic" in2="effect1_dropShadow_26642_47077" result="shape"/>
</filter>
<filter id="filter5_d_26642_47077" x="29.7916" y="28.6458" width="9.27222" height="6.95972" filterUnits="userSpaceOnUse" color-interpolation-filters="sRGB">
<feFlood flood-opacity="0" result="BackgroundImageFix"/>
<feColorMatrix in="SourceAlpha" type="matrix" values="0 0 0 0 0 0 0 0 0 0 0 0 0 0 0 0 0 0 127 0" result="hardAlpha"/>
<feOffset dy="1.12763"/>
<feGaussianBlur stdDeviation="1.12763"/>
<feComposite in2="hardAlpha" operator="out"/>
<feColorMatrix type="matrix" values="0 0 0 0 0.211765 0 0 0 0 0.168627 0 0 0 0 0.454902 0 0 0 0.16 0"/>
<feBlend mode="normal" in2="BackgroundImageFix" result="effect1_dropShadow_26642_47077"/>
<feBlend mode="normal" in="SourceGraphic" in2="effect1_dropShadow_26642_47077" result="shape"/>
</filter>
<filter id="filter6_d_26642_47077" x="44.9123" y="23.3485" width="10.6285" height="9.31209" filterUnits="userSpaceOnUse" color-interpolation-filters="sRGB">
<feFlood flood-opacity="0" result="BackgroundImageFix"/>
<feColorMatrix in="SourceAlpha" type="matrix" values="0 0 0 0 0 0 0 0 0 0 0 0 0 0 0 0 0 0 127 0" result="hardAlpha"/>
<feOffset dy="1.26818"/>
<feGaussianBlur stdDeviation="1.01454"/>
<feComposite in2="hardAlpha" operator="out"/>
<feColorMatrix type="matrix" values="0 0 0 0 0.443137 0 0 0 0 0.14902 0 0 0 0 0.776471 0 0 0 0.24 0"/>
<feBlend mode="normal" in2="BackgroundImageFix" result="effect1_dropShadow_26642_47077"/>
<feBlend mode="normal" in="SourceGraphic" in2="effect1_dropShadow_26642_47077" result="shape"/>
</filter>
<filter id="filter7_d_26642_47077" x="11.6623" y="24.5242" width="11.0152" height="9.17927" filterUnits="userSpaceOnUse" color-interpolation-filters="sRGB">
<feFlood flood-opacity="0" result="BackgroundImageFix"/>
<feColorMatrix in="SourceAlpha" type="matrix" values="0 0 0 0 0 0 0 0 0 0 0 0 0 0 0 0 0 0 127 0" result="hardAlpha"/>
<feOffset dy="1.26818"/>
<feGaussianBlur stdDeviation="1.01454"/>
<feComposite in2="hardAlpha" operator="out"/>
<feColorMatrix type="matrix" values="0 0 0 0 0.443137 0 0 0 0 0.14902 0 0 0 0 0.776471 0 0 0 0.24 0"/>
<feBlend mode="normal" in2="BackgroundImageFix" result="effect1_dropShadow_26642_47077"/>
<feBlend mode="normal" in="SourceGraphic" in2="effect1_dropShadow_26642_47077" result="shape"/>
</filter>
<filter id="filter8_d_26642_47077" x="29.3273" y="38.1871" width="9.41568" height="7.06802" filterUnits="userSpaceOnUse" color-interpolation-filters="sRGB">
<feFlood flood-opacity="0" result="BackgroundImageFix"/>
<feColorMatrix in="SourceAlpha" type="matrix" values="0 0 0 0 0 0 0 0 0 0 0 0 0 0 0 0 0 0 127 0" result="hardAlpha"/>
<feOffset dy="1.14494"/>
<feGaussianBlur stdDeviation="1.14494"/>
<feComposite in2="hardAlpha" operator="out"/>
<feColorMatrix type="matrix" values="0 0 0 0 0.211765 0 0 0 0 0.168627 0 0 0 0 0.454902 0 0 0 0.16 0"/>
<feBlend mode="normal" in2="BackgroundImageFix" result="effect1_dropShadow_26642_47077"/>
<feBlend mode="normal" in="SourceGraphic" in2="effect1_dropShadow_26642_47077" result="shape"/>
</filter>
<filter id="filter9_d_26642_47077" x="22.5725" y="27.118" width="6.65584" height="6.65584" filterUnits="userSpaceOnUse" color-interpolation-filters="sRGB">
<feFlood flood-opacity="0" result="BackgroundImageFix"/>
<feColorMatrix in="SourceAlpha" type="matrix" values="0 0 0 0 0 0 0 0 0 0 0 0 0 0 0 0 0 0 127 0" result="hardAlpha"/>
<feOffset dy="1.26818"/>
<feGaussianBlur stdDeviation="1.01455"/>
<feComposite in2="hardAlpha" operator="out"/>
<feColorMatrix type="matrix" values="0 0 0 0 0.443137 0 0 0 0 0.14902 0 0 0 0 0.776471 0 0 0 0.24 0"/>
<feBlend mode="normal" in2="BackgroundImageFix" result="effect1_dropShadow_26642_47077"/>
<feBlend mode="normal" in="SourceGraphic" in2="effect1_dropShadow_26642_47077" result="shape"/>
</filter>
<filter id="filter10_d_26642_47077" x="39.6154" y="26.6649" width="6.65584" height="6.65584" filterUnits="userSpaceOnUse" color-interpolation-filters="sRGB">
<feFlood flood-opacity="0" result="BackgroundImageFix"/>
<feColorMatrix in="SourceAlpha" type="matrix" values="0 0 0 0 0 0 0 0 0 0 0 0 0 0 0 0 0 0 127 0" result="hardAlpha"/>
<feOffset dy="1.26818"/>
<feGaussianBlur stdDeviation="1.01455"/>
<feComposite in2="hardAlpha" operator="out"/>
<feColorMatrix type="matrix" values="0 0 0 0 0.443137 0 0 0 0 0.14902 0 0 0 0 0.776471 0 0 0 0.24 0"/>
<feBlend mode="normal" in2="BackgroundImageFix" result="effect1_dropShadow_26642_47077"/>
<feBlend mode="normal" in="SourceGraphic" in2="effect1_dropShadow_26642_47077" result="shape"/>
</filter>
<filter id="filter11_d_26642_47077" x="30.1818" y="46.0321" width="8.76131" height="8.20662" filterUnits="userSpaceOnUse" color-interpolation-filters="sRGB">
<feFlood flood-opacity="0" result="BackgroundImageFix"/>
<feColorMatrix in="SourceAlpha" type="matrix" values="0 0 0 0 0 0 0 0 0 0 0 0 0 0 0 0 0 0 127 0" result="hardAlpha"/>
<feOffset dy="1.26818"/>
<feGaussianBlur stdDeviation="1.01455"/>
<feComposite in2="hardAlpha" operator="out"/>
<feColorMatrix type="matrix" values="0 0 0 0 0.443137 0 0 0 0 0.14902 0 0 0 0 0.776471 0 0 0 0.24 0"/>
<feBlend mode="normal" in2="BackgroundImageFix" result="effect1_dropShadow_26642_47077"/>
<feBlend mode="normal" in="SourceGraphic" in2="effect1_dropShadow_26642_47077" result="shape"/>
</filter>
<filter id="filter12_d_26642_47077" x="28.8115" y="6.71008" width="8.94729" height="8.94729" filterUnits="userSpaceOnUse" color-interpolation-filters="sRGB">
<feFlood flood-opacity="0" result="BackgroundImageFix"/>
<feColorMatrix in="SourceAlpha" type="matrix" values="0 0 0 0 0 0 0 0 0 0 0 0 0 0 0 0 0 0 127 0" result="hardAlpha"/>
<feOffset dy="0.632943"/>
<feGaussianBlur stdDeviation="0.506354"/>
<feComposite in2="hardAlpha" operator="out"/>
<feColorMatrix type="matrix" values="0 0 0 0 0.443137 0 0 0 0 0.14902 0 0 0 0 0.776471 0 0 0 0.24 0"/>
<feBlend mode="normal" in2="BackgroundImageFix" result="effect1_dropShadow_26642_47077"/>
<feBlend mode="normal" in="SourceGraphic" in2="effect1_dropShadow_26642_47077" result="shape"/>
</filter>
<filter id="filter13_d_26642_47077" x="10.8324" y="55.4273" width="16.2829" height="35.0016" filterUnits="userSpaceOnUse" color-interpolation-filters="sRGB">
<feFlood flood-opacity="0" result="BackgroundImageFix"/>
<feColorMatrix in="SourceAlpha" type="matrix" values="0 0 0 0 0 0 0 0 0 0 0 0 0 0 0 0 0 0 127 0" result="hardAlpha"/>
<feOffset dx="1.72772" dy="1.50236"/>
<feGaussianBlur stdDeviation="1.50236"/>
<feComposite in2="hardAlpha" operator="out"/>
<feColorMatrix type="matrix" values="0 0 0 0 0.443137 0 0 0 0 0.14902 0 0 0 0 0.776471 0 0 0 0.4 0"/>
<feBlend mode="normal" in2="BackgroundImageFix" result="effect1_dropShadow_26642_47077"/>
<feBlend mode="normal" in="SourceGraphic" in2="effect1_dropShadow_26642_47077" result="shape"/>
</filter>
<linearGradient id="paint0_linear_26642_47077" x1="34" y1="-5.46429" x2="34" y2="65.5714" gradientUnits="userSpaceOnUse">
<stop stop-color="white"/>
<stop offset="0.55" stop-color="#FD8039"/>
<stop offset="1" stop-color="#832EC5"/>
</linearGradient>
<linearGradient id="paint1_linear_26642_47077" x1="54.7393" y1="57.5124" x2="55.6117" y2="77.1" gradientUnits="userSpaceOnUse">
<stop stop-color="#5F20C6"/>
<stop offset="0.520833" stop-color="#C53FC4"/>
<stop offset="1" stop-color="#F5A55A"/>
</linearGradient>
<linearGradient id="paint2_linear_26642_47077" x1="33.2364" y1="12.1804" x2="33.3639" y2="16.5862" gradientUnits="userSpaceOnUse">
<stop stop-color="#F5A55A"/>
<stop offset="0.520833" stop-color="#C53FC4"/>
<stop offset="1" stop-color="#5F20C6"/>
</linearGradient>
<linearGradient id="paint3_linear_26642_47077" x1="34.5809" y1="46.7829" x2="36.151" y2="101.016" gradientUnits="userSpaceOnUse">
<stop stop-color="#F5A55A"/>
<stop offset="0.520833" stop-color="#C53FC4"/>
<stop offset="1" stop-color="#5F20C6"/>
</linearGradient>
<linearGradient id="paint4_linear_26642_47077" x1="35.0515" y1="51.7605" x2="35.0516" y2="73.6833" gradientUnits="userSpaceOnUse">
<stop stop-color="#FFF500"/>
<stop offset="1" stop-color="#FF8A00"/>
</linearGradient>
<linearGradient id="paint5_linear_26642_47077" x1="33.2806" y1="16.616" x2="34.1179" y2="45.5368" gradientUnits="userSpaceOnUse">
<stop stop-color="#F5A55A"/>
<stop offset="0.520833" stop-color="#C53FC4"/>
<stop offset="1" stop-color="#5F20C6"/>
</linearGradient>
<radialGradient id="paint6_radial_26642_47077" cx="0" cy="0" r="1" gradientUnits="userSpaceOnUse" gradientTransform="translate(1.29776 1.29784) rotate(90) scale(4.47811 4.47783)">
<stop offset="0.143134" stop-color="white"/>
<stop offset="1" stop-color="white" stop-opacity="0"/>
</radialGradient>
<radialGradient id="paint7_radial_26642_47077" cx="0" cy="0" r="1" gradientUnits="userSpaceOnUse" gradientTransform="translate(1.29776 1.29784) rotate(90) scale(4.47811 4.47783)">
<stop offset="0.143134" stop-color="white"/>
<stop offset="1" stop-color="white" stop-opacity="0"/>
</radialGradient>
<linearGradient id="paint8_linear_26642_47077" x1="1.76295" y1="0" x2="1.76295" y2="1.41045" gradientUnits="userSpaceOnUse">
<stop stop-color="#6523C6"/>
<stop offset="1" stop-color="#F5A35E"/>
</linearGradient>
<linearGradient id="paint9_linear_26642_47077" x1="3.46116" y1="0" x2="3.46116" y2="6.92275" gradientUnits="userSpaceOnUse">
<stop stop-color="#F5A55A"/>
<stop offset="0.520833" stop-color="#C53FC4"/>
<stop offset="1" stop-color="#5F20C6"/>
</linearGradient>
<radialGradient id="paint10_radial_26642_47077" cx="0" cy="0" r="1" gradientUnits="userSpaceOnUse" gradientTransform="translate(18.0507 70.0478) rotate(88.3418) scale(45.3513 20.4332)">
<stop offset="0.143134" stop-color="white"/>
<stop offset="1" stop-color="white" stop-opacity="0"/>
</radialGradient>
<linearGradient id="paint11_linear_26642_47077" x1="17.6704" y1="56.9097" x2="18.4312" y2="83.186" gradientUnits="userSpaceOnUse">
<stop stop-color="#5F20C6"/>
<stop offset="0.520833" stop-color="#C53FC4"/>
<stop offset="1" stop-color="#F5A55A"/>
</linearGradient>
<clipPath id="clip0_26642_47077">
<rect width="68" height="68" rx="34" fill="white"/>
</clipPath>
</defs>
</svg>
