<svg width="22" height="22" viewBox="0 0 22 22" fill="none" xmlns="http://www.w3.org/2000/svg">
<g clip-path="url(#clip0_43506_66384)">
<rect x="-0.000488281" width="22" height="22" rx="11" fill="url(#paint0_linear_43506_66384)" fill-opacity="0.69"/>
<rect x="-0.000488281" width="22" height="22" rx="11" fill="white" fill-opacity="0.2"/>
<g style="mix-blend-mode:soft-light" filter="url(#filter0_f_43506_66384)">
<ellipse cx="11.0525" cy="21.9468" rx="11.4939" ry="8.12653" fill="white"/>
</g>
<g style="mix-blend-mode:soft-light" filter="url(#filter1_f_43506_66384)">
<path d="M10.9631 1.04688C16.4415 1.04688 20.8827 5.48803 20.8827 10.9665C20.8827 11.1029 20.8789 11.2387 20.8735 11.3738C20.6595 6.50217 16.3048 2.61313 10.9631 2.61313C5.62127 2.61313 1.2661 6.50216 1.05212 11.3738C1.04667 11.2387 1.04346 11.1029 1.04346 10.9665C1.04346 5.48803 5.48461 1.04688 10.9631 1.04688Z" fill="url(#paint1_radial_43506_66384)"/>
</g>
<g style="mix-blend-mode:soft-light" filter="url(#filter2_f_43506_66384)">
<path d="M10.9627 20.25C5.48427 20.25 1.04312 15.8088 1.04312 10.3304C1.04312 10.1939 1.04684 10.0581 1.05229 9.92303C1.26628 14.7947 5.62094 18.6837 10.9627 18.6837C16.3045 18.6837 20.6597 14.7947 20.8737 9.92303C20.8791 10.0581 20.8823 10.1939 20.8823 10.3304C20.8823 15.8088 16.4412 20.25 10.9627 20.25Z" fill="url(#paint2_radial_43506_66384)"/>
</g>
<g style="mix-blend-mode:soft-light" filter="url(#filter3_f_43506_66384)">
<ellipse cx="11" cy="11.3973" rx="8.25" ry="6.67857" fill="white"/>
</g>
<g filter="url(#filter4_d_43506_66384)">
<path d="M15.8191 19.2177C15.634 18.3938 16.0836 17.5553 16.8772 17.2669C17.8585 16.9103 18.9107 17.5396 19.0035 18.5796C19.1659 20.4 19.2881 23.1284 18.8715 25.3166C18.3427 28.0946 16.3326 27.4326 16.4011 24.6055C16.4228 23.7101 16.4281 22.9218 16.4046 22.3941C16.3784 21.8055 16.0716 20.3415 15.8191 19.2177Z" fill="url(#paint3_linear_43506_66384)"/>
<g filter="url(#filter5_d_43506_66384)">
<path d="M4.65242 22.4823C4.59044 20.3414 5.19039 18.3714 6.19535 17.4157C9.29097 14.4721 13.0147 14.3746 16.2807 17.1107C17.3525 18.0086 18.0849 19.9679 18.1475 22.132L18.1879 23.5253C18.3311 28.4728 16.3035 32.5456 13.6591 32.6221L9.74878 32.7353C7.10028 32.812 4.83697 28.8573 4.69352 23.9022L4.65242 22.4823Z" fill="url(#paint4_linear_43506_66384)"/>
</g>
<path d="M10.4004 17.6054C10.4517 17.12 10.8539 16.7474 11.3417 16.7333C11.8295 16.7192 12.2526 17.0679 12.3319 17.5494L13.6103 25.3173C13.7418 26.1166 13.3874 26.9179 12.7076 27.3583C12.0693 27.7718 11.2539 27.7954 10.5928 27.4195C9.88861 27.0192 9.48845 26.2398 9.57353 25.4342L10.4004 17.6054Z" fill="url(#paint5_linear_43506_66384)"/>
<g filter="url(#filter6_d_43506_66384)">
<path d="M11.9111 9.62727C11.9235 10.0527 11.5886 10.4076 11.1632 10.4199C10.7378 10.4322 10.3829 10.0973 10.3706 9.67188C10.3706 9.67188 10.7155 9.66189 11.1409 9.64957C11.5663 9.63726 11.9111 9.62727 11.9111 9.62727Z" fill="#362B74"/>
</g>
<rect width="1.14073" height="0.456322" transform="matrix(0.999581 -0.0289403 0.0289367 0.999581 10.5776 14.75)" fill="url(#paint6_linear_43506_66384)"/>
<g filter="url(#filter7_d_43506_66384)">
<path d="M10.4442 15.6153C10.5103 15.3404 10.7523 15.1439 11.0349 15.1357L11.2942 15.1282C11.626 15.1186 11.9094 15.3658 11.9449 15.6958C11.9648 15.8802 11.9032 16.064 11.7764 16.1992L11.7425 16.2353C11.4805 16.5146 11.0492 16.5492 10.7459 16.3154L10.6707 16.2575C10.4752 16.1068 10.3865 15.8553 10.4442 15.6153Z" fill="#FFEE17"/>
</g>
<g filter="url(#filter8_d_43506_66384)">
<path d="M10.1991 4.39962C10.1838 4.18755 10.3433 4.00321 10.5554 3.9879C10.7675 3.97259 10.9518 4.1321 10.9671 4.34418L11.0421 5.38248L10.2741 5.43793L10.1991 4.39962Z" fill="url(#paint7_linear_43506_66384)"/>
</g>
<path d="M4.37898 10.5666C4.19287 7.98845 6.132 5.74755 8.71016 5.56143L12.5537 5.28395C15.1319 5.09783 17.3728 7.03696 17.5589 9.61511C17.745 12.1933 15.8059 14.4342 13.2277 14.6203L9.38414 14.8978C6.80598 15.0839 4.5651 13.1448 4.37898 10.5666Z" fill="url(#paint8_linear_43506_66384)"/>
<rect width="2.44827" height="0.684802" rx="0.342401" transform="matrix(0.791963 -0.61057 0.610524 0.791998 15.0723 8.92969)" fill="url(#paint9_linear_43506_66384)"/>
<rect width="2.52706" height="0.684805" rx="0.342402" transform="matrix(0.871449 0.490486 -0.490438 0.871476 4.64697 8.35938)" fill="url(#paint10_linear_43506_66384)"/>
<g filter="url(#filter9_d_43506_66384)">
<path d="M11.9739 12.7154C12.005 13.1465 11.6808 13.5211 11.2498 13.5522C10.8188 13.5833 10.4442 13.2591 10.4131 12.8281C10.4131 12.8281 10.7625 12.8029 11.1935 12.7718C11.6245 12.7407 11.9739 12.7154 11.9739 12.7154Z" fill="white"/>
</g>
<path d="M10.5112 9.93593C10.4879 9.61268 10.1373 9.25691 10.4605 9.23357L12.0356 9.13501C12.3588 9.11168 12.1182 9.37732 12.1415 9.70057C12.1648 10.0238 12.4433 10.2823 12.1201 10.3056L10.545 10.4042C10.2218 10.4275 10.5345 10.2592 10.5112 9.93593Z" fill="white"/>
<path d="M6.24661 9.53778C6.19994 8.89128 6.68617 8.32935 7.33263 8.28268L9.20548 8.14748C9.85194 8.10081 10.4138 8.58707 10.4605 9.23357L10.5112 9.93593C10.5579 10.5824 10.0717 11.1444 9.42519 11.191L7.55235 11.3262C6.90588 11.3729 6.34399 10.8866 6.29732 10.2401L6.24661 9.53778Z" fill="white"/>
<path d="M11.7481 9.14062C11.7014 8.49412 12.1876 7.93219 12.8341 7.88552L14.7069 7.75031C15.3534 7.70364 15.9153 8.18991 15.962 8.83641L16.0127 9.53877C16.0593 10.1853 15.5731 10.7472 14.9267 10.7939L13.0538 10.9291C12.4074 10.9757 11.8455 10.4895 11.7988 9.84298L11.7481 9.14062Z" fill="white"/>
<ellipse opacity="0.5" cx="0.927312" cy="0.927369" rx="0.927312" ry="0.927369" transform="matrix(0.997404 -0.0720051 0.0720016 0.997405 7.21143 8.8125)" fill="#372B75"/>
<g filter="url(#filter10_d_43506_66384)">
<ellipse cx="0.419864" cy="0.419889" rx="0.419864" ry="0.419889" transform="matrix(0.997404 -0.0720051 0.0720016 0.997405 7.97412 9.19531)" fill="url(#paint11_radial_43506_66384)" shape-rendering="crispEdges"/>
</g>
<ellipse opacity="0.5" cx="0.927312" cy="0.927369" rx="0.927312" ry="0.927369" transform="matrix(0.997404 -0.0720051 0.0720016 0.997405 12.7065 8.42969)" fill="#362B74"/>
<g filter="url(#filter11_d_43506_66384)">
<ellipse cx="0.419864" cy="0.419889" rx="0.419864" ry="0.419889" transform="matrix(0.997404 -0.0720051 0.0720016 0.997405 13.4731 8.80469)" fill="url(#paint12_radial_43506_66384)" shape-rendering="crispEdges"/>
</g>
<g filter="url(#filter12_d_43506_66384)">
<ellipse cx="1.11979" cy="1.11986" rx="1.11979" ry="1.11986" transform="matrix(0.997843 -0.0656408 0.0656381 0.997844 9.35889 2.41406)" fill="url(#paint13_linear_43506_66384)"/>
</g>
<g filter="url(#filter13_d_43506_66384)">
<path d="M7.14439 20.4796C7.3167 19.4184 6.5245 18.3837 5.44985 18.4148C4.55267 18.4408 3.8584 19.2099 3.92408 20.105L4.39157 26.4766C4.42037 26.869 4.61101 27.2318 4.91787 27.4781C5.88343 28.2531 7.31583 27.5044 7.24109 26.2686C7.15438 24.8347 7.06581 23.1783 7.02753 21.8561C7.01556 21.4425 7.06701 20.9562 7.14439 20.4796Z" fill="url(#paint14_radial_43506_66384)"/>
<path d="M7.14439 20.4796C7.3167 19.4184 6.5245 18.3837 5.44985 18.4148C4.55267 18.4408 3.8584 19.2099 3.92408 20.105L4.39157 26.4766C4.42037 26.869 4.61101 27.2318 4.91787 27.4781C5.88343 28.2531 7.31583 27.5044 7.24109 26.2686C7.15438 24.8347 7.06581 23.1783 7.02753 21.8561C7.01556 21.4425 7.06701 20.9562 7.14439 20.4796Z" fill="url(#paint15_linear_43506_66384)"/>
</g>
</g>
</g>
<defs>
<filter id="filter0_f_43506_66384" x="-4.03324" y="10.2285" width="30.1715" height="23.4337" filterUnits="userSpaceOnUse" color-interpolation-filters="sRGB">
<feFlood flood-opacity="0" result="BackgroundImageFix"/>
<feBlend mode="normal" in="SourceGraphic" in2="BackgroundImageFix" result="shape"/>
<feGaussianBlur stdDeviation="1.79592" result="effect1_foregroundBlur_43506_66384"/>
</filter>
<filter id="filter1_f_43506_66384" x="-0.000711799" y="0.00270617" width="21.9277" height="12.4165" filterUnits="userSpaceOnUse" color-interpolation-filters="sRGB">
<feFlood flood-opacity="0" result="BackgroundImageFix"/>
<feBlend mode="normal" in="SourceGraphic" in2="BackgroundImageFix" result="shape"/>
<feGaussianBlur stdDeviation="0.522084" result="effect1_foregroundBlur_43506_66384"/>
</filter>
<filter id="filter2_f_43506_66384" x="-0.00120008" y="8.87771" width="21.9277" height="12.4165" filterUnits="userSpaceOnUse" color-interpolation-filters="sRGB">
<feFlood flood-opacity="0" result="BackgroundImageFix"/>
<feBlend mode="normal" in="SourceGraphic" in2="BackgroundImageFix" result="shape"/>
<feGaussianBlur stdDeviation="0.522084" result="effect1_foregroundBlur_43506_66384"/>
</filter>
<filter id="filter3_f_43506_66384" x="-5.51581" y="-3.54706" width="33.0316" height="29.891" filterUnits="userSpaceOnUse" color-interpolation-filters="sRGB">
<feFlood flood-opacity="0" result="BackgroundImageFix"/>
<feBlend mode="normal" in="SourceGraphic" in2="BackgroundImageFix" result="shape"/>
<feGaussianBlur stdDeviation="4.13291" result="effect1_foregroundBlur_43506_66384"/>
</filter>
<filter id="filter4_d_43506_66384" x="0.495048" y="-0.160497" width="22.0846" height="37.2482" filterUnits="userSpaceOnUse" color-interpolation-filters="sRGB">
<feFlood flood-opacity="0" result="BackgroundImageFix"/>
<feColorMatrix in="SourceAlpha" type="matrix" values="0 0 0 0 0 0 0 0 0 0 0 0 0 0 0 0 0 0 127 0" result="hardAlpha"/>
<feOffset dy="0.928439"/>
<feGaussianBlur stdDeviation="1.71244"/>
<feColorMatrix type="matrix" values="0 0 0 0 1 0 0 0 0 1 0 0 0 0 1 0 0 0 0.08 0"/>
<feBlend mode="normal" in2="BackgroundImageFix" result="effect1_dropShadow_43506_66384"/>
<feBlend mode="normal" in="SourceGraphic" in2="effect1_dropShadow_43506_66384" result="shape"/>
</filter>
<filter id="filter5_d_43506_66384" x="4.3849" y="15.0342" width="14.073" height="18.1277" filterUnits="userSpaceOnUse" color-interpolation-filters="sRGB">
<feFlood flood-opacity="0" result="BackgroundImageFix"/>
<feColorMatrix in="SourceAlpha" type="matrix" values="0 0 0 0 0 0 0 0 0 0 0 0 0 0 0 0 0 0 127 0" result="hardAlpha"/>
<feOffset dy="0.164404"/>
<feGaussianBlur stdDeviation="0.131523"/>
<feComposite in2="hardAlpha" operator="out"/>
<feColorMatrix type="matrix" values="0 0 0 0 0.443137 0 0 0 0 0.14902 0 0 0 0 0.776471 0 0 0 0.24 0"/>
<feBlend mode="normal" in2="BackgroundImageFix" result="effect1_dropShadow_43506_66384"/>
<feBlend mode="normal" in="SourceGraphic" in2="effect1_dropShadow_43506_66384" result="shape"/>
</filter>
<filter id="filter6_d_43506_66384" x="9.64097" y="9.26018" width="3.0003" height="2.25616" filterUnits="userSpaceOnUse" color-interpolation-filters="sRGB">
<feFlood flood-opacity="0" result="BackgroundImageFix"/>
<feColorMatrix in="SourceAlpha" type="matrix" values="0 0 0 0 0 0 0 0 0 0 0 0 0 0 0 0 0 0 127 0" result="hardAlpha"/>
<feOffset dy="0.36482"/>
<feGaussianBlur stdDeviation="0.36482"/>
<feComposite in2="hardAlpha" operator="out"/>
<feColorMatrix type="matrix" values="0 0 0 0 0.211765 0 0 0 0 0.168627 0 0 0 0 0.454902 0 0 0 0.16 0"/>
<feBlend mode="normal" in2="BackgroundImageFix" result="effect1_dropShadow_43506_66384"/>
<feBlend mode="normal" in="SourceGraphic" in2="effect1_dropShadow_43506_66384" result="shape"/>
</filter>
<filter id="filter7_d_43506_66384" x="9.77029" y="14.8788" width="2.83491" height="2.65669" filterUnits="userSpaceOnUse" color-interpolation-filters="sRGB">
<feFlood flood-opacity="0" result="BackgroundImageFix"/>
<feColorMatrix in="SourceAlpha" type="matrix" values="0 0 0 0 0 0 0 0 0 0 0 0 0 0 0 0 0 0 127 0" result="hardAlpha"/>
<feOffset dy="0.410294"/>
<feGaussianBlur stdDeviation="0.328235"/>
<feComposite in2="hardAlpha" operator="out"/>
<feColorMatrix type="matrix" values="0 0 0 0 0.443137 0 0 0 0 0.14902 0 0 0 0 0.776471 0 0 0 0.24 0"/>
<feBlend mode="normal" in2="BackgroundImageFix" result="effect1_dropShadow_43506_66384"/>
<feBlend mode="normal" in="SourceGraphic" in2="effect1_dropShadow_43506_66384" result="shape"/>
</filter>
<filter id="filter8_d_43506_66384" x="9.9352" y="3.88573" width="1.36984" height="1.97922" filterUnits="userSpaceOnUse" color-interpolation-filters="sRGB">
<feFlood flood-opacity="0" result="BackgroundImageFix"/>
<feColorMatrix in="SourceAlpha" type="matrix" values="0 0 0 0 0 0 0 0 0 0 0 0 0 0 0 0 0 0 127 0" result="hardAlpha"/>
<feOffset dy="0.164404"/>
<feGaussianBlur stdDeviation="0.131523"/>
<feComposite in2="hardAlpha" operator="out"/>
<feColorMatrix type="matrix" values="0 0 0 0 0.443137 0 0 0 0 0.14902 0 0 0 0 0.776471 0 0 0 0.24 0"/>
<feBlend mode="normal" in2="BackgroundImageFix" result="effect1_dropShadow_43506_66384"/>
<feBlend mode="normal" in="SourceGraphic" in2="effect1_dropShadow_43506_66384" result="shape"/>
</filter>
<filter id="filter9_d_43506_66384" x="9.67225" y="12.3483" width="3.04467" height="2.31762" filterUnits="userSpaceOnUse" color-interpolation-filters="sRGB">
<feFlood flood-opacity="0" result="BackgroundImageFix"/>
<feColorMatrix in="SourceAlpha" type="matrix" values="0 0 0 0 0 0 0 0 0 0 0 0 0 0 0 0 0 0 127 0" result="hardAlpha"/>
<feOffset dy="0.37042"/>
<feGaussianBlur stdDeviation="0.37042"/>
<feComposite in2="hardAlpha" operator="out"/>
<feColorMatrix type="matrix" values="0 0 0 0 0.211765 0 0 0 0 0.168627 0 0 0 0 0.454902 0 0 0 0.16 0"/>
<feBlend mode="normal" in2="BackgroundImageFix" result="effect1_dropShadow_43506_66384"/>
<feBlend mode="normal" in="SourceGraphic" in2="effect1_dropShadow_43506_66384" result="shape"/>
</filter>
<filter id="filter10_d_43506_66384" x="7.34695" y="8.91789" width="2.1523" height="2.14888" filterUnits="userSpaceOnUse" color-interpolation-filters="sRGB">
<feFlood flood-opacity="0" result="BackgroundImageFix"/>
<feColorMatrix in="SourceAlpha" type="matrix" values="0 0 0 0 0 0 0 0 0 0 0 0 0 0 0 0 0 0 127 0" result="hardAlpha"/>
<feOffset dy="0.410294"/>
<feGaussianBlur stdDeviation="0.328235"/>
<feComposite in2="hardAlpha" operator="out"/>
<feColorMatrix type="matrix" values="0 0 0 0 0.443137 0 0 0 0 0.14902 0 0 0 0 0.776471 0 0 0 0.24 0"/>
<feBlend mode="normal" in2="BackgroundImageFix" result="effect1_dropShadow_43506_66384"/>
<feBlend mode="normal" in="SourceGraphic" in2="effect1_dropShadow_43506_66384" result="shape"/>
</filter>
<filter id="filter11_d_43506_66384" x="12.846" y="8.52726" width="2.1523" height="2.14888" filterUnits="userSpaceOnUse" color-interpolation-filters="sRGB">
<feFlood flood-opacity="0" result="BackgroundImageFix"/>
<feColorMatrix in="SourceAlpha" type="matrix" values="0 0 0 0 0 0 0 0 0 0 0 0 0 0 0 0 0 0 127 0" result="hardAlpha"/>
<feOffset dy="0.410294"/>
<feGaussianBlur stdDeviation="0.328235"/>
<feComposite in2="hardAlpha" operator="out"/>
<feColorMatrix type="matrix" values="0 0 0 0 0.443137 0 0 0 0 0.14902 0 0 0 0 0.776471 0 0 0 0.24 0"/>
<feBlend mode="normal" in2="BackgroundImageFix" result="effect1_dropShadow_43506_66384"/>
<feBlend mode="normal" in="SourceGraphic" in2="effect1_dropShadow_43506_66384" result="shape"/>
</filter>
<filter id="filter12_d_43506_66384" x="9.10253" y="2.21307" width="2.89454" height="2.89747" filterUnits="userSpaceOnUse" color-interpolation-filters="sRGB">
<feFlood flood-opacity="0" result="BackgroundImageFix"/>
<feColorMatrix in="SourceAlpha" type="matrix" values="0 0 0 0 0 0 0 0 0 0 0 0 0 0 0 0 0 0 127 0" result="hardAlpha"/>
<feOffset dy="0.204776"/>
<feGaussianBlur stdDeviation="0.16382"/>
<feComposite in2="hardAlpha" operator="out"/>
<feColorMatrix type="matrix" values="0 0 0 0 0.443137 0 0 0 0 0.14902 0 0 0 0 0.776471 0 0 0 0.24 0"/>
<feBlend mode="normal" in2="BackgroundImageFix" result="effect1_dropShadow_43506_66384"/>
<feBlend mode="normal" in="SourceGraphic" in2="effect1_dropShadow_43506_66384" result="shape"/>
</filter>
<filter id="filter13_d_43506_66384" x="3.50677" y="17.928" width="5.26846" height="11.327" filterUnits="userSpaceOnUse" color-interpolation-filters="sRGB">
<feFlood flood-opacity="0" result="BackgroundImageFix"/>
<feColorMatrix in="SourceAlpha" type="matrix" values="0 0 0 0 0 0 0 0 0 0 0 0 0 0 0 0 0 0 127 0" result="hardAlpha"/>
<feOffset dx="0.558968" dy="0.486059"/>
<feGaussianBlur stdDeviation="0.486059"/>
<feComposite in2="hardAlpha" operator="out"/>
<feColorMatrix type="matrix" values="0 0 0 0 0.443137 0 0 0 0 0.14902 0 0 0 0 0.776471 0 0 0 0.4 0"/>
<feBlend mode="normal" in2="BackgroundImageFix" result="effect1_dropShadow_43506_66384"/>
<feBlend mode="normal" in="SourceGraphic" in2="effect1_dropShadow_43506_66384" result="shape"/>
</filter>
<linearGradient id="paint0_linear_43506_66384" x1="13.6938" y1="3.34007" x2="-6.28066" y2="21.6163" gradientUnits="userSpaceOnUse">
<stop stop-color="#FFC700"/>
<stop offset="0.520833" stop-color="#B900FF"/>
<stop offset="1" stop-color="#832EC5"/>
</linearGradient>
<radialGradient id="paint1_radial_43506_66384" cx="0" cy="0" r="1" gradientUnits="userSpaceOnUse" gradientTransform="translate(10.6625 3.14695) rotate(90) scale(9.61901)">
<stop stop-color="white"/>
<stop offset="1" stop-color="white" stop-opacity="0"/>
</radialGradient>
<radialGradient id="paint2_radial_43506_66384" cx="0" cy="0" r="1" gradientUnits="userSpaceOnUse" gradientTransform="translate(11.2633 18.1499) rotate(-90) scale(9.61901)">
<stop stop-color="white"/>
<stop offset="1" stop-color="white" stop-opacity="0"/>
</radialGradient>
<linearGradient id="paint3_linear_43506_66384" x1="17.7093" y1="18.6022" x2="17.9915" y2="24.9394" gradientUnits="userSpaceOnUse">
<stop stop-color="#5F20C6"/>
<stop offset="0.520833" stop-color="#C53FC4"/>
<stop offset="1" stop-color="#F5A55A"/>
</linearGradient>
<linearGradient id="paint4_linear_43506_66384" x1="11.1923" y1="15.1328" x2="11.7003" y2="32.6788" gradientUnits="userSpaceOnUse">
<stop stop-color="#F5A55A"/>
<stop offset="0.520833" stop-color="#C53FC4"/>
<stop offset="1" stop-color="#5F20C6"/>
</linearGradient>
<linearGradient id="paint5_linear_43506_66384" x1="11.3417" y1="16.7333" x2="11.3417" y2="23.826" gradientUnits="userSpaceOnUse">
<stop stop-color="#FFF500"/>
<stop offset="1" stop-color="#FF8A00"/>
</linearGradient>
<linearGradient id="paint6_linear_43506_66384" x1="0.570367" y1="0" x2="0.570367" y2="0.456322" gradientUnits="userSpaceOnUse">
<stop stop-color="#6523C6"/>
<stop offset="1" stop-color="#F5A35E"/>
</linearGradient>
<linearGradient id="paint7_linear_43506_66384" x1="10.5554" y1="3.9879" x2="10.6581" y2="5.41021" gradientUnits="userSpaceOnUse">
<stop stop-color="#F5A55A"/>
<stop offset="0.520833" stop-color="#C53FC4"/>
<stop offset="1" stop-color="#5F20C6"/>
</linearGradient>
<linearGradient id="paint8_linear_43506_66384" x1="10.6319" y1="5.42269" x2="11.306" y2="14.759" gradientUnits="userSpaceOnUse">
<stop stop-color="#F5A55A"/>
<stop offset="0.520833" stop-color="#C53FC4"/>
<stop offset="1" stop-color="#5F20C6"/>
</linearGradient>
<linearGradient id="paint9_linear_43506_66384" x1="1.22413" y1="0" x2="1.22278" y2="0.429905" gradientUnits="userSpaceOnUse">
<stop stop-color="#FFF500"/>
<stop offset="1" stop-color="#FF8A00"/>
</linearGradient>
<linearGradient id="paint10_linear_43506_66384" x1="1.26353" y1="0" x2="1.26222" y2="0.429907" gradientUnits="userSpaceOnUse">
<stop stop-color="#FFF500"/>
<stop offset="1" stop-color="#FF8A00"/>
</linearGradient>
<radialGradient id="paint11_radial_43506_66384" cx="0" cy="0" r="1" gradientUnits="userSpaceOnUse" gradientTransform="translate(0.419864 0.419889) rotate(90) scale(1.4488 1.44871)">
<stop offset="0.143134" stop-color="white"/>
<stop offset="1" stop-color="white" stop-opacity="0"/>
</radialGradient>
<radialGradient id="paint12_radial_43506_66384" cx="0" cy="0" r="1" gradientUnits="userSpaceOnUse" gradientTransform="translate(0.419864 0.419889) rotate(90) scale(1.4488 1.44871)">
<stop offset="0.143134" stop-color="white"/>
<stop offset="1" stop-color="white" stop-opacity="0"/>
</radialGradient>
<linearGradient id="paint13_linear_43506_66384" x1="1.11979" y1="0" x2="1.11979" y2="2.23971" gradientUnits="userSpaceOnUse">
<stop stop-color="#F5A55A"/>
<stop offset="0.520833" stop-color="#C53FC4"/>
<stop offset="1" stop-color="#5F20C6"/>
</linearGradient>
<radialGradient id="paint14_radial_43506_66384" cx="0" cy="0" r="1" gradientTransform="matrix(0.424575 14.6663 6.60796 -0.191317 5.84173 22.6576)" gradientUnits="userSpaceOnUse">
<stop offset="0.143134" stop-color="white"/>
<stop offset="1" stop-color="white" stop-opacity="0"/>
</radialGradient>
<linearGradient id="paint15_linear_43506_66384" x1="5.71868" y1="18.407" x2="5.96481" y2="26.9082" gradientUnits="userSpaceOnUse">
<stop stop-color="#5F20C6"/>
<stop offset="0.520833" stop-color="#C53FC4"/>
<stop offset="1" stop-color="#F5A55A"/>
</linearGradient>
<clipPath id="clip0_43506_66384">
<rect x="-0.000488281" width="22" height="22" rx="11" fill="white"/>
</clipPath>
</defs>
</svg>
